<svg width="320" height="426" viewBox="0 0 320 426" fill="none" xmlns="http://www.w3.org/2000/svg">
<mask id="path-1-inside-1_416_772" fill="white">
<path d="M0 8C0 3.58172 3.58172 0 8 0H312C316.418 0 320 3.58172 320 8V418C320 422.418 316.418 426 312 426H7.99999C3.58171 426 0 422.418 0 418V8Z"/>
<path d="M77.9913 45.6138L67.1581 132.296L27 226.952L129.178 359.328H159.7V98.8073H153.796L77.9913 45.6138Z"/>
<path d="M252.228 132.296L241.408 45.6138L165.604 98.8073H159.7V359.328H190.208L292.4 226.952L252.228 132.296Z"/>
</mask>
<path d="M0 8C0 3.58172 3.58172 0 8 0H312C316.418 0 320 3.58172 320 8V418C320 422.418 316.418 426 312 426H7.99999C3.58171 426 0 422.418 0 418V8Z" fill="url(#paint0_linear_416_772)"/>
<path d="M77.9913 45.6138L67.1581 132.296L27 226.952L129.178 359.328H159.7V98.8073H153.796L77.9913 45.6138Z" fill="url(#paint1_linear_416_772)"/>
<path d="M252.228 132.296L241.408 45.6138L165.604 98.8073H159.7V359.328H190.208L292.4 226.952L252.228 132.296Z" fill="url(#paint2_linear_416_772)"/>
<path d="M160.2 359.328V98.8073H159.2V359.328H160.2ZM77.9913 45.6138L78.5657 44.7952L77.2052 43.8405L76.9991 45.4898L77.9913 45.6138ZM67.1581 132.296L68.0787 132.687L68.1331 132.558L68.1504 132.42L67.1581 132.296ZM27 226.952L26.0794 226.561L25.851 227.1L26.2084 227.563L27 226.952ZM129.178 359.328L128.386 359.939L128.686 360.328H129.178V359.328ZM153.796 98.8073L153.222 99.6259L153.48 99.8073H153.796V98.8073ZM252.228 132.296L251.235 132.42L251.253 132.558L251.307 132.687L252.228 132.296ZM241.408 45.6138L242.401 45.4899L242.195 43.8403L240.834 44.7952L241.408 45.6138ZM165.604 98.8073V99.8073H165.92L166.178 99.6259L165.604 98.8073ZM190.208 359.328V360.328H190.7L191 359.939L190.208 359.328ZM292.4 226.952L293.191 227.563L293.549 227.1L293.32 226.561L292.4 226.952ZM8 1H312V-1H8V1ZM319 8V418H321V8H319ZM312 425H7.99999V427H312V425ZM1 418V8H-1V418H1ZM7.99999 425C4.134 425 1 421.866 1 418H-1C-1 422.971 3.02943 427 7.99999 427V425ZM319 418C319 421.866 315.866 425 312 425V427C316.971 427 321 422.971 321 418H319ZM312 1C315.866 1 319 4.13401 319 8H321C321 3.02944 316.971 -1 312 -1V1ZM8 -1C3.02944 -1 -1 3.02943 -1 8H1C1 4.13401 4.13401 1 8 1V-1ZM76.9991 45.4898L66.1658 132.172L68.1504 132.42L78.9836 45.7378L76.9991 45.4898ZM66.2375 131.905L26.0794 226.561L27.9206 227.342L68.0787 132.687L66.2375 131.905ZM26.2084 227.563L128.386 359.939L129.969 358.717L27.7916 226.341L26.2084 227.563ZM129.178 360.328H159.7V358.328H129.178V360.328ZM159.7 97.8073H153.796V99.8073H159.7V97.8073ZM154.37 97.9887L78.5657 44.7952L77.4169 46.4323L153.222 99.6259L154.37 97.9887ZM253.22 132.172L242.401 45.4899L240.416 45.7376L251.235 132.42L253.22 132.172ZM240.834 44.7952L165.029 97.9887L166.178 99.6259L241.983 46.4323L240.834 44.7952ZM165.604 97.8073H159.7V99.8073H165.604V97.8073ZM159.7 360.328H190.208V358.328H159.7V360.328ZM191 359.939L293.191 227.563L291.608 226.341L189.417 358.717L191 359.939ZM293.32 226.561L253.148 131.905L251.307 132.687L291.479 227.342L293.32 226.561Z" fill="url(#paint3_linear_416_772)" mask="url(#path-1-inside-1_416_772)"/>
<defs>
<linearGradient id="paint0_linear_416_772" x1="160" y1="0" x2="160" y2="426" gradientUnits="userSpaceOnUse">
<stop stop-color="#F2D438"/>
<stop offset="1" stop-color="#FFE5BD"/>
</linearGradient>
<linearGradient id="paint1_linear_416_772" x1="80" y1="0" x2="386.9" y2="186.644" gradientUnits="userSpaceOnUse">
<stop stop-color="white" stop-opacity="0.4"/>
<stop offset="1" stop-color="white" stop-opacity="0.1"/>
</linearGradient>
<linearGradient id="paint2_linear_416_772" x1="80" y1="0" x2="386.9" y2="186.644" gradientUnits="userSpaceOnUse">
<stop stop-color="white" stop-opacity="0.4"/>
<stop offset="1" stop-color="white" stop-opacity="0.1"/>
</linearGradient>
<linearGradient id="paint3_linear_416_772" x1="81.3333" y1="2.23172e-05" x2="388.493" y2="186.289" gradientUnits="userSpaceOnUse">
<stop stop-color="white"/>
<stop offset="0.479167" stop-color="#AF94EE" stop-opacity="0.65"/>
<stop offset="1" stop-color="#5920DB" stop-opacity="0.69"/>
</linearGradient>
</defs>
</svg>
