<svg width="320" height="431" viewBox="0 0 320 431" fill="none" xmlns="http://www.w3.org/2000/svg">
<path d="M0 10C0 5.58173 3.58172 2 8 2H312C316.418 2 320 5.58172 320 10V423C320 427.418 316.418 431 312 431H7.99999C3.58171 431 0 427.418 0 423V10Z" fill="url(#paint0_linear_416_706)"/>
<g filter="url(#filter0_b_416_706)">
<rect width="351.528" height="228.448" rx="27.0909" transform="matrix(0.186177 -0.982516 0.93918 -0.343425 16 423.836)" fill="url(#paint1_linear_416_706)" fill-opacity="0.4"/>
<rect width="98.2044" height="98.2044" rx="32.7348" transform="matrix(0.186177 -0.982516 0.93918 -0.343425 31.5244 356.75)" fill="#1A1A1A"/>
<path d="M94.8141 308.912C94.5289 308.649 94.428 308.19 94.5334 307.633L104.261 256.297C104.438 255.362 105.562 254.516 106.041 254.956L113.391 261.709C113.677 261.971 113.778 262.431 113.672 262.987L103.944 314.324C103.767 315.259 102.644 316.105 102.165 315.665L94.8141 308.912Z" fill="url(#paint2_linear_416_706)"/>
<path d="M60.1722 321.579C59.8869 321.317 59.7859 320.857 59.8914 320.301L69.6191 268.965C69.7963 268.029 70.9195 267.183 71.3989 267.623L78.7494 274.377C79.0346 274.639 79.1355 275.098 79.0301 275.655L69.3024 326.991C69.1252 327.926 68.002 328.773 67.5226 328.332L60.1722 321.579Z" fill="url(#paint3_linear_416_706)"/>
<path d="M85.61 271.868C85.1757 272.393 84.8725 273.001 84.767 273.557L75.0394 324.893C74.8622 325.828 75.808 325.918 76.538 325.036L87.7328 311.501C88.1672 310.976 88.4705 310.368 88.5759 309.812L98.3036 258.476C98.4808 257.541 97.5349 257.451 96.8048 258.333L85.61 271.868Z" fill="url(#paint4_linear_416_706)"/>
<rect width="98.2044" height="98.2044" rx="32.7348" transform="matrix(0.186177 -0.982516 0.93918 -0.343425 56.728 223.741)" fill="#F5B300"/>
<path d="M83.8613 184.695C84.6589 182.754 85.3025 180.87 86.1001 178.929C86.8977 176.989 87.5414 175.104 88.339 173.164C88.5845 172.624 88.4611 172.519 88.0297 172.527C85.5345 172.84 83.1932 173.097 80.6979 173.409C80.2666 173.417 80.1431 173.312 80.3887 172.773C81.1557 170.993 81.7383 169.431 82.3515 167.708C82.597 167.168 82.7509 167.112 83.0283 167.161C85.3696 166.904 87.8649 166.591 90.2061 166.335C90.3601 166.279 90.5141 166.222 90.7915 166.271C91.3435 164.87 91.9261 163.307 92.4782 161.906C92.5087 161.745 92.2313 161.697 92.1079 161.592C90.198 161.841 88.442 162.033 86.5626 162.121C85.9773 162.185 85.392 162.249 84.8067 162.313C84.4987 162.426 84.3753 162.321 84.5903 161.942C85.3574 160.163 85.9705 158.44 86.7681 156.499C86.7986 156.338 86.9526 156.282 86.9831 156.121C88.893 155.872 90.649 155.68 92.4049 155.487C93.1442 155.367 93.8835 155.246 94.5923 155.287C95.0236 155.279 95.2081 155.062 95.4536 154.522C96.5591 152.469 97.6647 150.416 98.7702 148.363C99.9991 146.414 101.505 144.514 103.259 142.824C105.843 140.53 108.337 139.468 110.678 139.212C112.28 139.075 113.697 139.157 114.685 139.995C115.426 140.623 115.797 141.687 116.015 142.806C115.985 142.967 116.108 143.072 116.047 143.394C116.631 142.581 117.061 141.824 117.645 141.011C119.397 138.572 121.334 136.664 123.612 135.232C125.367 134.29 127.184 133.776 128.786 133.64C130.819 133.496 132.514 133.625 133.933 134.456C135.598 135.496 136.249 137.356 136.069 139.821C135.889 143.034 134.971 146.368 133.899 149.758C133.653 150.298 133.746 150.564 134.178 150.556C136.519 150.299 139.014 149.986 141.355 149.73C141.941 149.666 142.095 149.61 141.634 150.527C141.052 152.09 140.285 153.869 139.702 155.431C139.456 155.971 139.302 156.027 139.025 155.979C136.53 156.291 134.035 156.604 131.724 156.7C131.416 156.812 131.292 156.708 131.077 157.086C130.525 158.487 129.973 159.888 129.391 161.45C130.715 161.266 132.009 161.242 133.334 161.058C134.659 160.873 135.953 160.85 137.277 160.665C137.555 160.714 137.709 160.657 137.463 161.197C136.696 162.976 136.083 164.7 135.47 166.423C135.224 166.962 135.07 167.019 134.793 166.97C132.298 167.283 129.802 167.596 127.492 167.691C127.338 167.747 127.214 167.643 126.906 167.755C125.281 171.798 123.655 175.84 121.999 180.043C121.444 179.946 121.012 179.954 120.458 179.857C119.194 179.72 117.931 179.582 116.79 179.549C116.359 179.557 116.39 179.396 116.481 178.913C117.003 177.673 117.555 176.272 117.922 175.088C118.474 173.687 118.042 172.946 116.995 173.179C109.539 173.956 102.084 174.733 94.4445 175.728C93.2739 175.856 91.7356 177.168 90.9991 178.787C90.2625 180.405 89.6799 181.967 89.1278 183.368C89.0668 183.691 88.8823 183.908 88.6049 183.859C87.0029 183.996 85.2469 184.188 83.6449 184.324C83.9847 184.799 83.9847 184.799 83.8613 184.695ZM123.446 162.575C123.476 162.414 123.661 162.196 123.661 162.196C124.765 159.394 126.054 156.375 126.727 153.58C127.247 151.591 127.582 149.819 127.302 148.273C126.958 145.55 123.354 145.669 120.555 148.342C119.17 149.598 118.156 151.168 117.142 152.738C115.053 156.2 113.797 159.807 112.57 163.254C112.325 163.793 112.479 163.737 112.91 163.729C114.389 163.488 115.683 163.465 117.161 163.224C119.195 163.08 121.259 162.775 123.446 162.575ZM110.306 154.788C110.367 154.466 110.365 153.717 110.333 153.129C110.298 150.294 107.216 149.922 104.293 152.489C102.755 153.801 101.556 155.589 100.666 157.263C99.3149 159.856 98.4257 162.28 97.3521 164.921C97.1065 165.461 97.23 165.565 97.6613 165.557C100.742 165.181 103.668 164.86 106.719 164.644C106.996 164.692 107.18 164.475 107.395 164.097C107.671 163.396 107.917 162.857 108.193 162.156C108.959 159.628 109.817 157.365 110.306 154.788Z" fill="white"/>
<path d="M173.142 267.485C175.733 264.431 177.243 261.774 177.672 259.511C177.894 258.34 177.816 257.501 177.438 256.995C177.04 256.472 176.434 256.359 175.62 256.657C174.78 256.964 174 257.646 173.278 258.702C172.532 259.768 171.826 260.992 171.162 262.375C170.502 263.731 169.792 265.105 169.031 266.498C168.244 267.901 167.261 269.214 166.082 270.438C164.903 271.662 163.588 272.539 162.138 273.069C159.848 273.906 158.065 273.629 156.79 272.238C155.489 270.856 155.098 268.794 155.617 266.052C155.854 264.801 156.211 263.543 156.687 262.279C157.164 261.015 157.747 259.749 158.437 258.481L163.495 259.158C162.794 260.108 162.091 261.319 161.386 262.791C160.66 264.245 160.204 265.465 160.018 266.45C159.836 267.408 159.916 268.109 160.258 268.554C160.58 268.981 161.109 269.06 161.847 268.79C162.585 268.521 163.327 267.853 164.074 266.787C164.795 265.731 165.485 264.525 166.145 263.169C166.81 261.786 167.522 260.398 168.284 259.005C169.025 257.595 169.985 256.277 171.164 255.054C172.343 253.83 173.658 252.953 175.108 252.422C177.499 251.548 179.409 251.778 180.838 253.114C182.24 254.459 182.689 256.462 182.185 259.124C181.807 261.12 181.013 263.058 179.805 264.937C178.759 266.583 177.878 267.797 177.161 268.579L176.673 269.092L173.142 267.485ZM170.737 243.433L170.828 242.953L166.197 241.897L160.468 241.205L162.078 236.083L167.755 237.426L176.465 239.071L186.357 235.045L185.298 240.635L176.214 243.585L165.491 252.188L158.085 258.464L158.198 253.183L164.491 248.466L170.737 243.433ZM165.994 212.789L182.383 207.279L191.55 203.518L191.611 207.881L170.961 226.505L179.319 223.449L189.348 219.261L188.402 224.252L179.219 227.164L162.183 233.84L162.862 229.132L183.772 210.45L165.644 217.45L165.994 212.789ZM193.437 197.683L184.254 200.595L167.103 207.313L169.94 192.34L173.941 191.286L172.238 200.27L178.948 198.039L180.461 190.054L184.423 189.014L182.963 196.72L184.482 196.201L190.413 193.773L192.244 184.111L196.206 183.07L193.437 197.683ZM188.181 175.556L187.75 177.832L187.979 177.748L197.993 173.64L196.979 178.99L187.796 181.903L170.645 188.62L172.287 179.956C172.771 177.401 173.818 175.123 175.429 173.122C177.04 171.121 178.939 169.72 181.127 168.92C182.781 168.315 184.209 168.214 185.411 168.617C186.593 169.002 187.435 169.809 187.936 171.038L198.641 160.658L200.092 164.623L188.302 174.731C188.292 174.908 188.252 175.183 188.181 175.556ZM175.869 179.984L175.498 181.94L184.071 179.066L184.585 176.351C184.837 175.02 184.612 174.149 183.908 173.737C183.21 173.299 182.085 173.363 180.533 173.931C178.014 174.852 176.459 176.87 175.869 179.984ZM203.422 147.052C202.761 150.539 201.109 153.756 198.467 156.704C195.824 159.653 192.658 161.801 188.969 163.15C184.771 164.685 181.487 164.648 179.116 163.037C176.745 161.427 175.928 158.679 176.664 154.792C176.957 153.249 177.367 151.773 177.894 150.367C178.4 148.943 178.847 147.9 179.232 147.239L179.803 146.287L184.67 146.663C184.009 147.647 183.334 148.898 182.645 150.413C181.929 151.938 181.474 153.22 181.277 154.258C180.868 156.414 181.266 157.879 182.469 158.653C183.672 159.427 185.469 159.376 187.861 158.502C191.092 157.32 193.727 155.787 195.766 153.902C197.809 151.99 199.04 149.93 199.459 147.721C199.731 146.283 199.797 144.996 199.658 143.858L193.742 146.021L192.766 151.171L188.987 152.181L190.803 142.599L196.956 140.684L203.611 137.99C203.964 141.503 203.901 144.523 203.422 147.052ZM192.267 129.811L192.358 129.332L187.728 128.275L181.998 127.583L183.608 122.461L189.285 123.804L197.996 125.449L207.887 121.424L206.828 127.013L197.744 129.963L187.021 138.567L179.616 144.842L179.728 139.561L186.021 134.845L192.267 129.811Z" fill="white"/>
<rect width="265.7" height="49.1046" rx="7.55232" transform="matrix(0.186177 -0.982516 0.93918 -0.343425 190.927 313.148)" fill="url(#paint5_linear_416_706)"/>
<path fill-rule="evenodd" clip-rule="evenodd" d="M205.521 282.124L208.275 281.461C213.675 280.16 217.255 282.99 217.075 288.415C219.077 282.324 224.342 276.26 230.016 273.511L232.91 272.109L230.156 272.772C224.756 274.073 221.177 271.243 221.357 265.818C219.354 271.909 214.09 277.973 208.415 280.722L205.521 282.124ZM208.134 281.94L203.668 283.015L203.755 282.556L208.448 280.283C213.926 277.629 219.009 271.773 220.938 265.891L221.415 264.437L221.852 264.277L221.808 265.573C221.629 270.814 225.084 273.549 230.298 272.293L234.764 271.218L234.677 271.677L229.984 273.95C224.505 276.604 219.423 282.46 217.493 288.342L217.016 289.796L216.58 289.955L216.624 288.66C216.802 283.419 213.347 280.684 208.134 281.94Z" fill="white"/>
<path d="M233.915 241.683L228.707 244.801L227.501 251.163L232.068 250.806L231.168 254.306L225.429 254.224L215.165 254.658L215.737 250.015L227.277 242.599L234.082 238.054L233.915 241.683ZM218.59 251.201L218.525 251.547L224.961 251.324L225.858 246.586L218.59 251.201ZM220.341 231.34C220.064 232.052 219.875 232.675 219.774 233.207C219.673 233.739 219.752 234.074 220.01 234.211C220.272 234.33 220.784 234.25 221.547 233.97L223.959 233.113L224.504 230.239L226.535 229.768L226.046 232.35L229.654 231.056L235.688 228.577L235.643 231.937L229.521 233.879L225.456 235.465L225.123 237.221L223.092 237.691L223.359 236.281L221.421 237.014C219.911 237.566 218.723 237.547 217.856 236.955C216.972 236.37 216.663 235.377 216.929 233.975C217.07 233.229 217.293 232.43 217.597 231.575L220.341 231.34ZM231.565 227.341C229.394 228.135 227.67 228.196 226.392 227.523C225.114 226.851 224.63 225.699 224.94 224.066C225.252 222.416 226.003 220.952 227.193 219.675C228.385 218.38 229.821 217.426 231.5 216.812C233.739 215.993 235.493 215.905 236.76 216.548C238.014 217.18 238.471 218.392 238.131 220.184C237.852 221.657 237.094 223.073 235.858 224.434C234.607 225.783 233.177 226.752 231.565 227.341ZM232.258 219.309C229.799 220.208 228.403 221.536 228.07 223.293C227.724 225.121 228.704 225.613 231.011 224.769C232.215 224.329 233.205 223.727 233.981 222.965C234.757 222.202 235.224 221.404 235.382 220.57C235.544 219.718 235.359 219.191 234.829 218.988C234.286 218.774 233.429 218.881 232.258 219.309ZM227.072 216.81L227.021 213.831C228.358 213.194 229.616 212.635 230.796 212.153C228.711 211.413 227.802 210.333 228.071 208.914L231.985 207.755C231.79 208.784 231.729 209.567 231.801 210.102C231.86 210.625 232.093 211.101 232.501 211.53L233.417 211.195L239.452 208.716L239.412 212.05L233.29 213.992C231.003 214.894 228.931 215.833 227.072 216.81ZM232.236 201.806C232.088 202.587 232.245 203.091 232.707 203.318C233.153 203.552 233.926 203.467 235.029 203.064C236.131 202.661 237.062 202.122 237.822 201.448C238.567 200.763 239.019 200.003 239.177 199.169C239.258 198.743 239.209 198.372 239.032 198.057C238.855 197.742 238.66 197.525 238.446 197.405L238.094 197.261L239.669 195.446C239.744 195.469 239.849 195.496 239.985 195.529C240.124 195.544 240.359 195.64 240.688 195.817C241.021 195.976 241.307 196.177 241.545 196.42C241.769 196.652 241.957 196.996 242.107 197.453C242.24 197.917 242.25 198.45 242.135 199.053C241.883 200.384 241.161 201.656 239.968 202.868C238.775 204.08 237.348 204.991 235.685 205.598C233.616 206.355 231.92 206.389 230.599 205.7C229.277 205.01 228.776 203.823 229.095 202.137C229.193 201.622 229.366 201.08 229.617 200.509C229.85 199.945 230.169 199.341 230.576 198.697L233.352 199.416C232.756 200.229 232.384 201.025 232.236 201.806ZM241.367 188.985C241.465 188.47 241.44 187.976 241.293 187.501C241.146 187.026 240.976 186.675 240.782 186.449L240.491 186.109L242.148 184.364C242.403 184.436 242.681 184.59 242.984 184.826C243.287 185.062 243.537 185.326 243.734 185.617C243.918 185.897 244.059 186.316 244.159 186.874C244.245 187.421 244.224 188.031 244.096 188.705C243.824 190.143 243.084 191.503 241.878 192.786C240.655 194.076 239.221 195.022 237.576 195.623C235.506 196.38 233.811 196.414 232.489 195.724C231.167 195.035 230.666 193.848 230.985 192.162C231.231 190.866 231.768 189.737 232.598 188.773C233.432 187.791 234.476 187.07 235.731 186.611C236.477 186.338 237.3 186.161 238.2 186.08L238.633 186.417L237.957 192.858C239.931 191.855 241.068 190.564 241.367 188.985ZM233.48 191.869C233.332 192.65 233.513 193.195 234.023 193.504C234.515 193.819 235.22 193.85 236.136 193.598L236.459 189.268C236.079 189.358 235.762 189.449 235.507 189.542C234.371 189.958 233.695 190.733 233.48 191.869ZM233.865 180.838L231.092 181.852L231.111 178.501L234.48 177.591L235.091 174.37L237.121 173.9L236.547 176.935L241.839 175.123C242.636 174.832 243.186 174.556 243.487 174.297C243.772 174.045 243.955 173.705 244.035 173.28C244.116 172.854 244.13 172.32 244.078 171.678L245.915 170.858C246.626 171.688 246.897 172.547 246.729 173.434C246.561 174.321 246.118 175.16 245.4 175.952C244.665 176.749 243.797 177.33 242.796 177.696L239.976 178.579L235.951 180.075L235.603 181.912L233.572 182.382L233.865 180.838ZM242.256 170.921C240.085 171.715 238.361 171.776 237.083 171.103C235.806 170.431 235.321 169.278 235.631 167.646C235.943 165.996 236.694 164.532 237.884 163.255C239.076 161.96 240.512 161.005 242.191 160.391C244.43 159.573 246.184 159.485 247.451 160.128C248.705 160.759 249.162 161.971 248.822 163.764C248.543 165.236 247.785 166.653 246.549 168.014C245.299 169.363 243.868 170.332 242.256 170.921ZM242.95 162.889C240.49 163.788 239.094 165.116 238.761 166.873C238.415 168.701 239.395 169.193 241.702 168.349C242.906 167.909 243.896 167.307 244.672 166.545C245.448 165.782 245.915 164.983 246.073 164.149C246.235 163.298 246.05 162.771 245.52 162.568C244.977 162.354 244.12 162.461 242.95 162.889ZM252.45 155.614C250.958 156.16 250.063 155.133 249.766 152.533C249.296 153.349 248.789 153.856 248.247 154.054C248.026 154.135 247.822 154.127 247.636 154.03C247.449 153.933 247.268 153.76 247.095 153.509L246.891 153.584C246.649 154.862 246.117 156.006 245.294 157.017C244.474 158.01 243.496 158.715 242.359 159.13C240.884 159.67 239.722 159.508 238.875 158.645C238.012 157.789 237.743 156.5 238.069 154.779C238.153 154.335 238.361 153.656 238.692 152.742C239.023 151.829 239.265 150.964 239.42 150.147L239.809 148.098L241.972 147.555L241.364 149.635C241.89 149.277 242.466 148.984 243.094 148.754C243.722 148.525 244.319 148.455 244.886 148.545C245.44 148.623 245.861 148.816 246.15 149.123C246.442 149.413 246.691 149.727 246.895 150.065C247.086 150.391 247.261 150.674 247.421 150.913C247.567 151.14 247.725 151.223 247.895 151.161C248.217 151.043 248.565 150.586 248.936 149.789C250.022 147.641 250.882 146.146 251.515 145.304C252.152 144.443 252.843 143.877 253.59 143.604C254.845 143.145 255.745 143.435 256.29 144.474C256.855 145.49 256.965 146.911 256.618 148.739C256.272 150.567 255.723 152.088 254.972 153.305C254.224 154.503 253.383 155.273 252.45 155.614ZM243.287 151.483C242.456 151.787 241.809 152.205 241.345 152.738C240.88 153.272 240.569 153.955 240.411 154.789C240.105 156.404 240.716 156.932 242.242 156.374C243.752 155.822 244.67 154.685 244.996 152.964C245.282 151.456 244.712 150.962 243.287 151.483ZM253.316 146.924C253.01 147.036 252.69 147.31 252.355 147.746C252.036 148.177 251.617 148.892 251.096 149.891C251.189 151.063 251.333 151.844 251.528 152.235C251.725 152.609 252.036 152.718 252.46 152.563C252.884 152.408 253.269 152.045 253.614 151.472C253.98 150.876 254.245 150.144 254.409 149.274C254.574 148.405 254.556 147.751 254.355 147.312C254.154 146.874 253.807 146.744 253.316 146.924ZM250.931 138.511C251.029 137.996 251.004 137.502 250.858 137.027C250.711 136.552 250.54 136.201 250.346 135.975L250.056 135.635L251.712 133.89C251.967 133.962 252.246 134.116 252.548 134.352C252.851 134.589 253.101 134.852 253.298 135.143C253.482 135.423 253.624 135.842 253.723 136.4C253.809 136.947 253.788 137.557 253.66 138.231C253.388 139.669 252.649 141.029 251.442 142.312C250.219 143.602 248.785 144.548 247.14 145.149C245.07 145.906 243.375 145.94 242.053 145.25C240.731 144.561 240.23 143.374 240.55 141.688C240.795 140.392 241.333 139.263 242.163 138.299C242.996 137.317 244.04 136.596 245.295 136.137C246.042 135.864 246.865 135.687 247.764 135.606L248.198 135.943L247.522 142.384C249.496 141.381 250.632 140.09 250.931 138.511ZM243.044 141.395C242.896 142.176 243.077 142.721 243.587 143.03C244.08 143.345 244.784 143.376 245.7 143.124L246.023 138.794C245.643 138.884 245.326 138.975 245.072 139.068C243.935 139.484 243.259 140.259 243.044 141.395ZM242.702 134.205L239.928 135.219L239.948 131.868L243.317 130.958L243.927 127.737L245.958 127.267L245.383 130.301L250.675 128.49C251.473 128.198 252.022 127.923 252.324 127.664C252.608 127.412 252.791 127.072 252.872 126.646C252.953 126.22 252.967 125.687 252.915 125.045L254.751 124.225C255.462 125.055 255.734 125.914 255.566 126.801C255.398 127.688 254.955 128.527 254.236 129.318C253.501 130.116 252.633 130.697 251.632 131.063L248.813 131.946L244.788 133.442L244.44 135.279L242.409 135.749L242.702 134.205ZM251.597 116.126C250.427 116.554 249.627 116.946 249.196 117.302C248.766 117.657 248.476 118.225 248.328 119.006C248.181 119.787 248.309 120.566 248.715 121.342L250.572 120.663L256.607 118.184L256.562 121.545L250.44 123.486L237.505 128.513L237.56 125.099L244.084 123.036L247.061 121.947C246.772 121.805 246.498 121.624 246.24 121.405C245.982 121.186 245.716 120.796 245.444 120.235C245.171 119.674 245.11 118.994 245.262 118.195C245.416 117.379 245.851 116.584 246.566 115.811C247.264 115.044 248.13 114.471 249.165 114.093L251.984 113.21L258.146 110.685L258.101 114.045L251.597 116.126ZM257.474 103.984C257.571 103.47 257.547 102.975 257.4 102.5C257.253 102.025 257.083 101.675 256.889 101.449L256.598 101.109L258.255 99.3635C258.51 99.4356 258.788 99.5897 259.091 99.8258C259.393 100.062 259.643 100.326 259.841 100.617C260.024 100.896 260.166 101.315 260.266 101.874C260.351 102.42 260.33 103.031 260.203 103.705C259.93 105.142 259.191 106.503 257.985 107.786C256.762 109.075 255.328 110.021 253.682 110.623C251.613 111.379 249.917 111.413 248.595 110.724C247.274 110.035 246.773 108.847 247.092 107.161C247.337 105.866 247.875 104.736 248.705 103.772C249.538 102.79 250.583 102.07 251.838 101.611C252.584 101.338 253.407 101.161 254.306 101.08L254.74 101.417L254.064 107.857C256.038 106.855 257.175 105.564 257.474 103.984ZM249.587 106.868C249.439 107.649 249.619 108.194 250.129 108.503C250.622 108.818 251.326 108.85 252.243 108.598L252.566 104.268C252.186 104.357 251.868 104.449 251.614 104.542C250.478 104.957 249.802 105.733 249.587 106.868ZM249.017 101L248.966 98.0213C250.302 97.3841 251.561 96.8248 252.741 96.3436C250.656 95.6034 249.747 94.5235 250.016 93.1039L253.93 91.9453C253.735 92.9745 253.673 93.7566 253.746 94.2917C253.804 94.8153 254.038 95.2915 254.446 95.7203L255.362 95.3853L261.396 92.9062L261.357 96.2403L255.235 98.1817C252.948 99.0838 250.876 100.023 249.017 101Z" fill="white"/>
<path fill-rule="evenodd" clip-rule="evenodd" d="M244.528 76.2691L247.283 75.6057C252.682 74.3052 256.262 77.1349 256.082 82.56C258.084 76.4686 263.349 70.4047 269.023 67.656L271.918 66.2539L269.163 66.9173C263.764 68.2179 260.184 65.3881 260.364 59.963C258.362 66.0545 253.097 72.1183 247.423 74.867L244.528 76.2691ZM247.141 76.0848L242.675 77.1605L242.762 76.7014L247.455 74.4281C252.933 71.7741 258.016 65.9176 259.946 60.0363L260.423 58.582L260.859 58.4225L260.815 59.7184C260.637 64.9594 264.092 67.6939 269.305 66.4382L273.771 65.3626L273.684 65.8216L268.991 68.095C263.513 70.7489 258.43 76.6054 256.5 82.4868L256.023 83.941L255.587 84.1005L255.631 82.8046C255.809 77.5637 252.354 74.8291 247.141 76.0848Z" fill="white"/>
<rect x="-0.562678" y="0.662971" width="352.528" height="229.448" rx="27.5909" transform="matrix(0.186177 -0.982516 0.93918 -0.343425 14.9194 424.174)" stroke="url(#paint6_radial_416_706)"/>
<rect x="-0.562678" y="0.662971" width="352.528" height="229.448" rx="27.5909" transform="matrix(0.186177 -0.982516 0.93918 -0.343425 14.9194 424.174)" stroke="url(#paint7_radial_416_706)" stroke-opacity="0.5"/>
</g>
<defs>
<filter id="filter0_b_416_706" x="-80.1997" y="-96.1997" width="472.399" height="616.236" filterUnits="userSpaceOnUse" color-interpolation-filters="sRGB">
<feFlood flood-opacity="0" result="BackgroundImageFix"/>
<feGaussianBlur in="BackgroundImage" stdDeviation="48.0998"/>
<feComposite in2="SourceAlpha" operator="in" result="effect1_backgroundBlur_416_706"/>
<feBlend mode="normal" in="SourceGraphic" in2="effect1_backgroundBlur_416_706" result="shape"/>
</filter>
<linearGradient id="paint0_linear_416_706" x1="160" y1="2" x2="160" y2="431" gradientUnits="userSpaceOnUse">
<stop stop-color="#110334" stop-opacity="0.5"/>
<stop offset="0.5" stop-color="#093053" stop-opacity="0"/>
<stop offset="1" stop-color="#4A6B83"/>
</linearGradient>
<linearGradient id="paint1_linear_416_706" x1="14.5048" y1="5.88427" x2="90.2192" y2="305.046" gradientUnits="userSpaceOnUse">
<stop stop-color="white" stop-opacity="0.4"/>
<stop offset="1" stop-color="white" stop-opacity="0"/>
</linearGradient>
<linearGradient id="paint2_linear_416_706" x1="53.2201" y1="293.376" x2="100.684" y2="320.332" gradientUnits="userSpaceOnUse">
<stop stop-color="#00FFA3"/>
<stop offset="1" stop-color="#DC1FFF"/>
</linearGradient>
<linearGradient id="paint3_linear_416_706" x1="53.2201" y1="293.376" x2="100.684" y2="320.332" gradientUnits="userSpaceOnUse">
<stop stop-color="#00FFA3"/>
<stop offset="1" stop-color="#DC1FFF"/>
</linearGradient>
<linearGradient id="paint4_linear_416_706" x1="53.2201" y1="293.376" x2="100.684" y2="320.332" gradientUnits="userSpaceOnUse">
<stop stop-color="#00FFA3"/>
<stop offset="1" stop-color="#DC1FFF"/>
</linearGradient>
<linearGradient id="paint5_linear_416_706" x1="132.85" y1="0" x2="132.85" y2="49.1046" gradientUnits="userSpaceOnUse">
<stop stop-color="#875CF4"/>
<stop offset="1" stop-color="#380BAC"/>
</linearGradient>
<radialGradient id="paint6_radial_416_706" cx="0" cy="0" r="1" gradientUnits="userSpaceOnUse" gradientTransform="translate(175.764 2.0768) rotate(90) scale(198.334 305.19)">
<stop stop-color="white"/>
<stop offset="1" stop-color="white" stop-opacity="0"/>
</radialGradient>
<radialGradient id="paint7_radial_416_706" cx="0" cy="0" r="1" gradientUnits="userSpaceOnUse" gradientTransform="translate(175.764 228.448) rotate(-90) scale(114.224 175.764)">
<stop stop-color="white"/>
<stop offset="1" stop-color="white" stop-opacity="0"/>
</radialGradient>
</defs>
</svg>
